# xmcd CD database file
#
# Track frame offsets:
#	182
#	10832
#	23112
#	32597
#	49740
#	60830
#	73527
#	85425
#	96832
#	112345
#	124692
#	137987
#	154097
#	163847
#	174815
#	186382
#	196667
#	208600
#	218582
#	230115
#
# Disc length: 3233 seconds
#
# Revision: 0
# Processed by: cddbd v1.5.2PL0 Copyright (c) Steve Scherf et al.
# Submitted via: jetAudio 7
#
DISCID=140c9f14
DTITLE=Floyd Cramer - Nashville Songbook
DYEAR=1900
DGENRE=Country
TTITLE0=San Antonio Rose
TTITLE1=Red Roses For A Blue Lady
TTITLE2=Winchester Cathedral
TTITLE3=Georgia On My Mind
TTITLE4=Sunny
TTITLE5=Soulful Strut
TTITLE6=Spanish Eyes
TTITLE7=Send Me The Pillow You Dream On
TTITLE8=The Entertainer (Theme From ''The Sting'')
TTITLE9=Woodchopper's Ball
TTITLE10=By The Time I Get To Phoenix
TTITLE11=Dizzy Fingers
TTITLE12=Danny Boy
TTITLE13=Honky Tonk (Part II)
TTITLE14=A Song Of Joy (Himno A La Alegria)
TTITLE15=Tennessee Waltz
TTITLE16=A Lover's Concerto
TTITLE17=Let It Be Me
TTITLE18=Wildwood Flower
TTITLE19=What The World Needs Now Is Love
EXTD=
EXTT0=
EXTT1=
EXTT2=
EXTT3=
EXTT4=
EXTT5=
EXTT6=
EXTT7=
EXTT8=
EXTT9=
EXTT10=
EXTT11=
EXTT12=
EXTT13=
EXTT14=
EXTT15=
EXTT16=
EXTT17=
EXTT18=
EXTT19=
PLAYORDER=
